<svg aria-hidden="true" style="position: absolute; width: 0; height: 0; overflow: hidden;" version="1.1" xmlns="http://www.w3.org/2000/svg" xmlns:xlink="http://www.w3.org/1999/xlink">
<defs>
<symbol id="icon-logo" viewBox="0 0 30 32">
<path fill="#f53838" style="fill: var(--color1, #f53838)" d="M26.938 11.803l-0.019-0.019c-0.001-0.001-0.003-0.002-0.003-0.004l-11.78-11.78-11.78 11.78c-0.001 0.001-0.003 0.004-0.003 0.004l-0.019 0.019c-1.801 1.811-2.946 4.173-3.251 6.709s0.246 5.102 1.567 7.289c1.32 2.187 3.334 3.87 5.72 4.781s5.009 0.998 7.451 0.248c0.205-0.063 0.425-0.063 0.631 0 2.442 0.75 5.064 0.663 7.451-0.248s4.4-2.594 5.72-4.781c1.32-2.187 1.872-4.752 1.567-7.289s-1.449-4.898-3.25-6.709zM7.544 19.572c-0.057 0.057-0.103 0.125-0.134 0.2s-0.047 0.155-0.047 0.236c0.021 2.079 0.609 4.113 1.7 5.883 0.025 0.040 0.036 0.087 0.033 0.134s-0.022 0.092-0.052 0.128c-0.031 0.036-0.072 0.061-0.117 0.073s-0.094 0.008-0.138-0.010c-0.82-0.345-1.565-0.847-2.194-1.476-1.288-1.288-2.012-3.034-2.013-4.855s0.721-3.568 2.006-4.858l8.547-8.546 8.547 8.546c1.286 1.289 2.008 3.037 2.007 4.858s-0.725 3.568-2.013 4.855c-0.628 0.63-1.373 1.131-2.193 1.476-0.044 0.018-0.092 0.021-0.138 0.010s-0.087-0.037-0.117-0.073c-0.030-0.036-0.049-0.081-0.052-0.128s0.008-0.094 0.033-0.134c1.091-1.77 1.679-3.804 1.7-5.883 0-0.081-0.016-0.161-0.047-0.236s-0.077-0.143-0.134-0.2l-4.043-4.288c-0.040-0.034-0.091-0.052-0.143-0.052s-0.103 0.018-0.143 0.052c-0.040 0.033-0.067 0.080-0.077 0.132s-0 0.105 0.025 0.15c1.57 2.841 0.22 6.922-2.032 9.174l-0.012 0.012c-0.311 0.307-0.73 0.48-1.167 0.48s-0.857-0.173-1.167-0.48l-0.011-0.011c-2.252-2.252-3.602-6.332-2.031-9.173 0.026-0.046 0.035-0.099 0.025-0.15s-0.037-0.098-0.077-0.132c-0.040-0.034-0.091-0.052-0.143-0.052s-0.103 0.018-0.143 0.052l-4.043 4.287z"></path>
</symbol>
<symbol id="icon-location" viewBox="0 0 31 32">
<path fill="#f53838" style="fill: var(--color1, #f53838)" d="M24.32 12.223c0-1.177-0.232-2.342-0.682-3.429s-1.11-2.075-1.942-2.907c-0.832-0.832-1.82-1.492-2.907-1.942s-2.252-0.682-3.429-0.682c-1.177 0-2.342 0.232-3.429 0.682s-2.075 1.11-2.907 1.942c-0.832 0.832-1.492 1.82-1.942 2.907s-0.682 2.252-0.682 3.429c0 1.775 0.525 3.427 1.414 4.819h-0.010c3.021 4.73 7.556 11.821 7.556 11.821l7.556-11.821h-0.009c0.922-1.438 1.412-3.111 1.413-4.819zM15.36 16.063c-1.018 0-1.995-0.405-2.715-1.125s-1.125-1.697-1.125-2.715c0-1.018 0.405-1.995 1.125-2.715s1.697-1.125 2.715-1.125c1.018 0 1.995 0.405 2.715 1.125s1.125 1.697 1.125 2.715c0 1.018-0.405 1.995-1.125 2.715s-1.697 1.125-2.715 1.125z"></path>
</symbol>
<symbol id="icon-server" viewBox="0 0 32 32">
<path fill="#f53838" style="fill: var(--color1, #f53838)" d="M26.24 4.543h-20.48c-0.679 0-1.33 0.27-1.81 0.75s-0.75 1.131-0.75 1.81v5.12c0 0.679 0.27 1.33 0.75 1.81s1.131 0.75 1.81 0.75h20.48c0.679 0 1.33-0.27 1.81-0.75s0.75-1.131 0.75-1.81v-5.12c0-0.679-0.27-1.33-0.75-1.81s-1.131-0.75-1.81-0.75zM19.84 9.663c0 0.707-0.573 1.28-1.28 1.28s-1.28-0.573-1.28-1.28c0-0.707 0.573-1.28 1.28-1.28s1.28 0.573 1.28 1.28zM24.96 9.663c0 0.707-0.573 1.28-1.28 1.28s-1.28-0.573-1.28-1.28c0-0.707 0.573-1.28 1.28-1.28s1.28 0.573 1.28 1.28zM26.24 17.343h-20.48c-0.679 0-1.33 0.27-1.81 0.75s-0.75 1.131-0.75 1.81v5.12c0 0.679 0.27 1.33 0.75 1.81s1.131 0.75 1.81 0.75h20.48c0.679 0 1.33-0.27 1.81-0.75s0.75-1.131 0.75-1.81v-5.12c0-0.679-0.27-1.33-0.75-1.81s-1.131-0.75-1.81-0.75zM19.84 22.463c0 0.707-0.573 1.28-1.28 1.28s-1.28-0.573-1.28-1.28c0-0.707 0.573-1.28 1.28-1.28s1.28 0.573 1.28 1.28zM24.96 22.463c0 0.707-0.573 1.28-1.28 1.28s-1.28-0.573-1.28-1.28c0-0.707 0.573-1.28 1.28-1.28s1.28 0.573 1.28 1.28z"></path>
</symbol>
<symbol id="icon-user" viewBox="0 0 32 32">
<path fill="#f53838" style="fill: var(--color1, #f53838)" d="M16 14.527c1.222 0 2.394-0.486 3.258-1.35s1.35-2.036 1.35-3.258-0.485-2.394-1.35-3.258c-0.864-0.864-2.036-1.35-3.258-1.35s-2.394 0.486-3.258 1.35c-0.864 0.864-1.35 2.036-1.35 3.258s0.485 2.394 1.35 3.258c0.864 0.864 2.036 1.35 3.258 1.35zM9.47 28.351c-2.332 0-4.296-1.96-3.404-4.115 0.54-1.304 1.332-2.49 2.331-3.488s2.184-1.79 3.488-2.331c1.304-0.54 2.703-0.818 4.115-0.818s2.81 0.278 4.115 0.818c1.305 0.54 2.49 1.332 3.488 2.331s1.79 2.184 2.331 3.488c0.892 2.154-1.072 4.115-3.404 4.115h-13.059z"></path>
</symbol>
<symbol id="icon-Group-1300" viewBox="0 0 270 32">
<path fill="#dde0e4" style="fill: var(--color1, #dde0e4)" d="M150 16.506c0 8.284-6.716 15-15 15s-15-6.716-15-15c0-8.284 6.716-15 15-15s15 6.716 15 15z"></path>
<path fill="#dde0e4" style="fill: var(--color1, #dde0e4)" d="M210 16.506c0 8.284-6.716 15-15 15s-15-6.716-15-15c0-8.284 6.716-15 15-15s15 6.716 15 15z"></path>
<path fill="#dde0e4" style="fill: var(--color1, #dde0e4)" d="M270 16.506c0 8.284-6.716 15-15 15s-15-6.716-15-15c0-8.284 6.716-15 15-15s15 6.716 15 15z"></path>
<path fill="#f53838" style="fill: var(--color2, #f53838)" d="M15.114 31.505c-0.038 0-0.076 0-0.114 0s-0.076 0-0.114-0h-0.992v-0.040c-7.768-0.566-13.894-7.048-13.894-14.96s6.126-14.394 13.894-14.96v-0.040l60.274 0.023c0.275-0.015 0.553-0.023 0.832-0.023 8.284 0 15 6.716 15 15s-6.716 15-15 15c-0.279 0-0.556-0.008-0.832-0.023v0.022h-59.054z"></path>
</symbol>
<symbol id="icon-facebook" viewBox="0 0 31 32">
<path fill="#f53838" style="fill: var(--color1, #f53838)" d="M30.72 15.891c0 8.483-6.877 15.36-15.36 15.36s-15.36-6.877-15.36-15.36c0-8.483 6.877-15.36 15.36-15.36s15.36 6.877 15.36 15.36z"></path>
<path fill="#fff" style="fill: var(--color2, #fff)" d="M15.36 0.531c-8.483 0-15.36 6.877-15.36 15.36s6.877 15.36 15.36 15.36c8.483 0 15.36-6.877 15.36-15.36s-6.877-15.36-15.36-15.36zM18.998 11.145h-2.309c-0.274 0-0.578 0.36-0.578 0.838v1.667h2.888l-0.437 2.378h-2.451v7.138h-2.725v-7.138h-2.472v-2.378h2.472v-1.398c0-2.006 1.392-3.637 3.302-3.637h2.309v2.53z"></path>
</symbol>
<symbol id="icon-twitter" viewBox="0 0 32 32">
<path fill="#f53838" style="fill: var(--color1, #f53838)" d="M31.268 15.891c0 8.483-6.877 15.36-15.36 15.36s-15.36-6.877-15.36-15.36c0-8.483 6.877-15.36 15.36-15.36s15.36 6.877 15.36 15.36z"></path>
<path fill="#fff" style="fill: var(--color2, #fff)" d="M15.909 0.531c-8.483 0-15.36 6.877-15.36 15.36s6.877 15.36 15.36 15.36c8.483 0 15.36-6.877 15.36-15.36s-6.877-15.36-15.36-15.36zM22.157 13.113c0.006 0.131 0.008 0.262 0.008 0.39 0 4-3.042 8.61-8.606 8.61-1.644 0.003-3.254-0.47-4.637-1.36 0.235 0.029 0.477 0.040 0.722 0.040 1.418 0 2.722-0.482 3.757-1.294-0.631-0.012-1.242-0.221-1.749-0.598s-0.883-0.901-1.077-1.502c0.453 0.086 0.92 0.068 1.365-0.053-0.685-0.139-1.3-0.51-1.743-1.050s-0.684-1.218-0.684-1.916v-0.037c0.408 0.226 0.875 0.363 1.371 0.379-0.642-0.427-1.096-1.084-1.27-1.835s-0.054-1.541 0.334-2.207c0.76 0.934 1.708 1.699 2.782 2.244s2.251 0.858 3.453 0.919c-0.153-0.649-0.087-1.331 0.187-1.938s0.742-1.108 1.33-1.423c0.588-0.315 1.263-0.426 1.921-0.318s1.262 0.432 1.717 0.919c0.677-0.134 1.326-0.382 1.92-0.734-0.226 0.701-0.698 1.296-1.33 1.675 0.6-0.072 1.185-0.233 1.738-0.478-0.406 0.608-0.917 1.138-1.509 1.566z"></path>
</symbol>
<symbol id="icon-instagram" viewBox="0 0 31 32">
<path fill="#f53838" style="fill: var(--color1, #f53838)" d="M30.903 15.891c0 8.483-6.877 15.36-15.36 15.36s-15.36-6.877-15.36-15.36c0-8.483 6.877-15.36 15.36-15.36s15.36 6.877 15.36 15.36z"></path>
<path fill="#fff" style="fill: var(--color2, #fff)" d="M20.343 15.891c0 1.273-0.506 2.494-1.406 3.394s-2.121 1.406-3.394 1.406c-1.273 0-2.494-0.506-3.394-1.406s-1.406-2.121-1.406-3.394c0-0.274 0.029-0.541 0.078-0.8h-1.678v6.395c0 0.445 0.36 0.805 0.805 0.805h11.192c0.213-0 0.417-0.085 0.568-0.236s0.235-0.355 0.235-0.569v-6.395h-1.678c0.050 0.259 0.078 0.526 0.078 0.8zM15.543 19.091c0.42-0 0.836-0.083 1.225-0.244s0.741-0.397 1.038-0.694c0.297-0.297 0.533-0.65 0.694-1.039s0.243-0.805 0.243-1.225c-0-0.42-0.083-0.836-0.244-1.225s-0.397-0.741-0.694-1.038c-0.297-0.297-0.65-0.533-1.039-0.694s-0.805-0.243-1.225-0.243c-0.849 0-1.663 0.338-2.263 0.938s-0.937 1.415-0.937 2.264 0.338 1.663 0.938 2.263c0.6 0.6 1.415 0.937 2.264 0.937zM19.383 12.531h1.918c0.127 0 0.25-0.051 0.34-0.141s0.141-0.212 0.142-0.339v-1.918c0-0.128-0.051-0.25-0.141-0.341s-0.213-0.141-0.341-0.141h-1.918c-0.128 0-0.25 0.051-0.341 0.141s-0.141 0.213-0.141 0.341v1.918c0.002 0.264 0.218 0.48 0.482 0.48zM15.543 0.531c-4.074 0-7.981 1.618-10.861 4.499s-4.499 6.787-4.499 10.861c0 4.074 1.618 7.981 4.499 10.861s6.787 4.499 10.861 4.499c2.017 0 4.014-0.397 5.878-1.169s3.557-1.903 4.983-3.33c1.426-1.426 2.558-3.12 3.33-4.983s1.169-3.861 1.169-5.878-0.397-4.014-1.169-5.878c-0.772-1.864-1.903-3.557-3.33-4.983s-3.12-2.558-4.983-3.33c-1.863-0.772-3.861-1.169-5.878-1.169zM23.543 22.113c0 0.978-0.8 1.778-1.778 1.778h-12.445c-0.978 0-1.778-0.8-1.778-1.778v-12.445c0-0.978 0.8-1.778 1.778-1.778h12.445c0.978 0 1.778 0.8 1.778 1.778v12.445z"></path>
</symbol>

</defs>
</svg>
